HIERARCHY
ROOT Hips
{
	OFFSET 0.000000 0.000000 0.000000 
	CHANNELS 6 Xposition Yposition Zposition Zrotation Yrotation Xrotation
	JOINT LeftUpLeg
	{
		OFFSET 1.363060 -1.794630 0.839290 
		CHANNELS 3 Zrotation Yrotation Xrotation
		JOINT LeftLeg
		{
			OFFSET 2.448110 -6.726130 0.000000 
			CHANNELS 3 Zrotation Yrotation Xrotation
			JOINT LeftFoot
			{
				OFFSET 2.562200 -7.039590 0.000000 
				CHANNELS 3 Zrotation Yrotation Xrotation
				JOINT LeftToeBase
				{
					OFFSET 0.157640 -0.433110 2.322550 
					CHANNELS 3 Zrotation Yrotation Xrotation
					End Site
					{
						OFFSET 0.000000 0.000000 0.000000 
					}
				}
			}
		}
	}
	JOINT RightUpLeg
	{
		OFFSET -1.305520 -1.794630 0.839290 
		CHANNELS 3 Zrotation Yrotation Xrotation
		JOINT RightLeg
		{
			OFFSET -2.542530 -6.985550 0.000000 
			CHANNELS 3 Zrotation Yrotation Xrotation
			JOINT RightFoot
			{
				OFFSET -2.568260 -7.056230 0.000000 
				CHANNELS 3 Zrotation Yrotation Xrotation
				JOINT RightToeBase
				{
					OFFSET -0.164730 -0.452590 2.363150 
					CHANNELS 3 Zrotation Yrotation Xrotation
					End Site
					{
						OFFSET 0.000000 0.000000 0.000000 
					}
				}
			}
		}
	}
	JOINT Spine
	{
		OFFSET 0.028270 2.035590 -0.193380 
		CHANNELS 3 Zrotation Yrotation Xrotation
		JOINT Spine1
		{
			OFFSET 0.056720 2.048850 -0.042750 
			CHANNELS 3 Zrotation Yrotation Xrotation
			JOINT Neck1
			{
				OFFSET -0.054170 1.746240 0.172020 
				CHANNELS 3 Zrotation Yrotation Xrotation
				JOINT Head
				{
					OFFSET 0.104070 1.761360 -0.123970 
					CHANNELS 3 Zrotation Yrotation Xrotation
					End Site
					{
						OFFSET 0.000000 0.000000 0.000000 
					}
				}
			}
			JOINT LeftArm
			{
				OFFSET 3.362410 1.200890 -0.311210 
				CHANNELS 3 Zrotation Yrotation Xrotation
				JOINT LeftForeArm
				{
					OFFSET 4.983000 -0.000000 -0.000000 
					CHANNELS 3 Zrotation Yrotation Xrotation
					JOINT LeftHand
					{
						OFFSET 3.483560 -0.000000 -0.000000 
						CHANNELS 3 Zrotation Yrotation Xrotation
						JOINT LeftHandIndex1
						{
							OFFSET 0.715260 -0.000000 -0.000000 
							CHANNELS 3 Zrotation Yrotation Xrotation
							End Site
							{
								OFFSET 0.000000 0.000000 0.000000 
							}
						}
					}
				}
			}
			JOINT RightArm
			{
				OFFSET -3.136600 1.374050 -0.404650 
				CHANNELS 3 Zrotation Yrotation Xrotation
				JOINT RightForeArm
				{
					OFFSET -5.241900 -0.000000 -0.000000 
					CHANNELS 3 Zrotation Yrotation Xrotation
					JOINT RightHand
					{
						OFFSET -3.444170 -0.000000 -0.000000 
						CHANNELS 3 Zrotation Yrotation Xrotation
						JOINT RightHandIndex1
						{
							OFFSET -0.622530 -0.000000 -0.000000 
							CHANNELS 3 Zrotation Yrotation Xrotation
							End Site
							{
								OFFSET 0.000000 0.000000 0.000000 
							}
						}
					}
				}
			}
		}
	}
}
MOTION
Frames: 10
Frame Time: 0.041667
3.234911 17.708132 0.353756 -21.882775 86.807317 -19.053504 -0.791596 -2.906440 -5.969636 -0.255133 -0.093687 1.504866 -0.153075 1.498346 5.859161 0.000000 0.000000 0.000000 22.561697 5.316218 -3.152041 0.019072 -3.019844 15.151259 -0.761784 4.468278 -7.453113 -0.157700 2.558900 -7.052900 -0.883541 -0.265744 4.187616 -2.525299 -0.182441 -2.472583 7.419656 -7.118965 4.364515 3.288100 -3.389100 2.211600 -77.470976 5.206487 32.930453 6.778592 -16.909248 -1.094741 -0.053927 0.721468 -13.252336 -7.125000 0.000000 0.000000 76.485810 -5.475506 27.649393 -13.544679 26.724502 -2.977842 0.326251 0.485178 23.037496 7.125000 0.000000 0.000000 
3.238000 17.714806 0.355649 -20.208146 86.867194 -17.403771 -0.795310 -2.903774 -5.974909 -0.255201 -0.089947 1.503435 -0.152337 1.502077 5.857853 0.000000 0.000000 0.000000 22.475426 5.355864 -3.171264 0.011574 -3.041133 15.211589 -0.763754 4.435338 -7.510967 -0.148500 2.483100 -6.842900 -0.930317 -0.270652 4.218039 -2.534880 -0.180913 -2.455455 7.424329 -7.111118 4.344642 3.276400 -3.384000 2.199600 -77.549433 5.597597 32.246977 6.878197 -17.067898 -1.121486 -0.040486 0.711558 -13.185817 -7.125000 0.000000 0.000000 76.720983 -5.722741 26.755050 -13.292094 26.389625 -2.891785 0.327642 0.480543 22.890261 7.125000 0.000000 0.000000 
3.239594 17.714806 0.357641 -19.980705 86.847286 -17.196031 -0.795720 -2.903448 -5.975503 -0.255217 -0.089507 1.503256 -0.152218 1.502519 5.857694 0.000000 0.000000 0.000000 22.480648 5.307462 -3.180590 0.006232 -3.049692 15.239553 -0.763841 4.466959 -7.467520 -0.156800 2.551100 -7.031400 -0.958553 -0.238788 4.226343 -2.574179 -0.163337 -2.457292 7.491057 -7.112551 4.332878 3.303000 -3.383800 2.187500 -77.540041 6.093688 32.136410 7.147204 -17.467024 -1.183679 -0.030067 0.718587 -13.730970 -7.125000 0.000000 0.000000 76.990151 -6.050693 25.745152 -13.162719 26.219665 -2.853567 0.335792 0.459765 22.852018 7.125000 0.000000 0.000000 
3.240191 17.708829 0.361726 -21.619007 86.783071 -18.829503 -0.791846 -2.906224 -5.970038 -0.255143 -0.093423 1.504761 -0.152949 1.498609 5.859057 0.000000 0.000000 0.000000 22.600876 5.291916 -3.128774 0.012975 -3.032668 15.194273 -0.761531 4.459945 -7.464946 -0.202600 2.898500 -7.996300 -0.923721 -0.204684 4.238956 -2.554913 -0.146470 -2.440164 7.541868 -7.112660 4.338786 3.326900 -3.382600 2.192400 -77.590122 6.560420 32.078957 7.474739 -17.944285 -1.261039 -0.026207 0.736386 -14.560432 -7.125000 0.000000 0.000000 77.194903 -6.327683 24.739894 -13.063012 26.085649 -2.825251 0.335215 0.448380 22.868533 7.125000 0.000000 0.000000 
3.240291 17.705143 0.363918 -22.968132 86.802589 -20.196564 -0.788866 -2.908324 -5.965853 -0.255099 -0.096391 1.505890 -0.153473 1.495649 5.860084 0.000000 0.000000 0.000000 22.654591 5.266395 -3.034122 0.025211 -2.997151 15.099808 -0.761115 4.469398 -7.458955 -0.205700 2.920200 -8.056600 -0.927724 -0.192207 4.241916 -2.584228 -0.141294 -2.461449 7.545288 -7.128509 4.277744 3.319300 -3.391400 2.153800 -77.648469 7.021145 31.955974 7.804764 -18.424056 -1.341959 -0.012912 0.758248 -15.585830 -7.125000 0.000000 0.000000 77.401996 -6.680986 23.893984 -13.038292 26.052468 -2.822175 0.331933 0.440867 22.768322 7.125000 0.000000 0.000000 
3.241586 17.704147 0.366010 -25.168770 86.792654 -22.421865 -0.783549 -2.912063 -5.958362 -0.255002 -0.101764 1.507941 -0.154451 1.490289 5.861957 0.000000 0.000000 0.000000 22.755912 5.269354 -2.935979 0.039161 -2.965240 15.010962 -0.752839 4.396239 -7.488662 -0.219000 3.012400 -8.313200 -0.926037 -0.182378 4.249900 -2.637398 -0.139678 -2.478672 7.541819 -7.134336 4.266095 3.308400 -3.394200 2.143600 -77.692283 7.481935 31.979984 8.156748 -18.930470 -1.427730 0.021443 0.774680 -16.892678 -7.125000 0.000000 0.000000 77.609263 -7.005102 23.163271 -13.018687 26.023544 -2.819195 0.323453 0.435734 22.580939 7.125000 0.000000 0.000000 
3.243778 17.703250 0.366607 -24.496544 86.826455 -21.791584 -0.785346 -2.910784 -5.960923 -0.255050 -0.099890 1.507218 -0.154071 1.492161 5.861292 0.000000 0.000000 0.000000 22.711547 5.213849 -2.874586 0.042277 -2.949238 14.976394 -0.749619 4.387078 -7.468093 -0.231700 3.097900 -8.551300 -0.947891 -0.174466 4.257596 -2.645035 -0.132897 -2.499568 7.562665 -7.152439 4.270458 3.321000 -3.403800 2.141900 -77.796490 7.846537 31.713924 8.415125 -19.301102 -1.494650 0.046080 0.785535 -17.764714 -7.125000 0.000000 0.000000 77.802062 -7.345606 22.395333 -13.027332 26.035474 -2.827061 0.320579 0.432673 22.427692 7.125000 0.000000 0.000000 
3.246468 17.701557 0.367006 -22.794885 86.879678 -20.114830 -0.789467 -2.907869 -5.966745 -0.255132 -0.095706 1.505617 -0.153257 1.496336 5.859829 0.000000 0.000000 0.000000 22.618589 5.155548 -2.852967 0.039430 -2.945946 14.976964 -0.759897 4.454605 -7.476836 -0.213200 2.972700 -8.202800 -0.963190 -0.172452 4.258092 -2.606100 -0.126238 -2.507641 7.605878 -7.173589 4.321008 3.348300 -3.413900 2.167100 -77.908343 8.234230 31.116879 8.699248 -19.704861 -1.573787 0.035133 0.781579 -17.908376 -7.125000 0.000000 0.000000 77.910343 -7.681493 21.822108 -13.060855 26.082195 -2.842483 0.318222 0.436285 22.175998 7.125000 0.000000 0.000000 
3.247962 17.700660 0.368799 -23.138744 86.914301 -20.469505 -0.788474 -2.908569 -5.965352 -0.255107 -0.096742 1.506018 -0.153434 1.495301 5.860192 0.000000 0.000000 0.000000 22.626287 5.131451 -2.874836 0.030077 -2.969060 15.040351 -0.772983 4.517856 -7.526893 -0.194700 2.841400 -7.837400 -0.954440 -0.169982 4.272167 -2.584790 -0.123392 -2.492924 7.629599 -7.179513 4.387862 3.362500 -3.415000 2.208500 -78.005059 8.581669 30.634174 9.042463 -20.184236 -1.669890 0.015841 0.777296 -17.961826 -7.125000 0.000000 0.000000 78.039135 -7.940492 21.247572 -13.097030 26.128009 -2.858569 0.311517 0.434751 21.942845 7.125000 0.000000 0.000000 
3.247364 17.700560 0.370094 -22.397468 86.959063 -19.732470 -0.790070 -2.907423 -5.967612 -0.255134 -0.095146 1.505409 -0.153116 1.496893 5.859636 0.000000 0.000000 0.000000 22.590943 5.130127 -2.921282 0.019716 -2.997871 15.119931 -0.775289 4.503217 -7.564695 -0.208500 2.940200 -8.112300 -0.958326 -0.162879 4.258013 -2.559298 -0.117307 -2.526664 7.577984 -7.183180 4.427970 3.335100 -3.417300 2.225900 -78.075776 8.941236 30.370203 9.360467 -20.628181 -1.759280 0.014264 0.778205 -18.172102 -7.125000 0.000000 0.000000 78.201962 -8.214528 20.662841 -13.144261 26.187629 -2.878003 0.300313 0.436234 21.683270 7.125000 0.000000 0.000000 
